<?xml version="1.0" standalone="no"?>
<!DOCTYPE svg PUBLIC "-//W3C//DTD SVG 20010904//EN"
 "http://www.w3.org/TR/2001/REC-SVG-20010904/DTD/svg10.dtd">
<svg version="1.0" xmlns="http://www.w3.org/2000/svg"
 width="459.000000pt" height="600.000000pt" viewBox="0 0 459.000000 600.000000"
 preserveAspectRatio="xMidYMid meet">

<g transform="translate(0.000000,600.000000) scale(0.100000,-0.100000)"
fill="#000000" stroke="none">
<path d="M1499 5762 c19 -15 46 -37 60 -49 l26 -22 -72 -1 c-39 0 -74 -4 -77
-8 -3 -5 17 -19 44 -32 52 -24 64 -40 31 -40 -31 0 -121 -23 -121 -30 0 -4 12
-10 28 -13 15 -3 36 -12 46 -20 17 -12 12 -14 -50 -20 -38 -4 -82 -11 -99 -15
l-30 -9 35 -18 35 -19 -74 -22 c-77 -24 -111 -44 -75 -44 24 -1 76 -29 54 -30
-22 0 -100 -52 -94 -62 3 -4 16 -8 30 -8 38 0 28 -14 -26 -40 -56 -26 -63 -40
-22 -41 24 0 23 -2 -13 -15 -22 -8 -47 -21 -55 -29 -13 -13 -8 -15 37 -15 29
0 55 -4 58 -10 4 -6 -6 -10 -22 -10 -15 0 -48 -10 -73 -22 l-45 -21 40 -12 40
-12 -60 -7 c-33 -3 -73 -10 -89 -14 -28 -8 -27 -9 35 -31 35 -13 68 -27 72
-31 4 -4 -16 -10 -45 -13 -29 -3 -66 -11 -83 -17 -30 -13 -29 -13 39 -26 38
-7 70 -15 73 -17 2 -3 -12 -8 -32 -11 -20 -4 -57 -16 -83 -27 -52 -23 -47 -31
23 -44 l40 -7 -60 -24 c-76 -31 -85 -40 -46 -49 17 -4 31 -10 31 -13 -1 -4
-25 -23 -55 -42 -30 -19 -55 -38 -55 -42 0 -4 14 -8 32 -8 l32 0 -34 -30 c-30
-25 -32 -29 -15 -30 17 0 15 -5 -14 -29 -30 -25 -39 -27 -64 -19 -46 16 -176
5 -223 -20 -109 -56 -140 -119 -131 -267 11 -170 96 -402 201 -549 43 -60 188
-206 205 -206 4 0 11 -55 14 -122 7 -146 27 -266 63 -379 l26 -83 -23 -16
c-89 -57 -137 -127 -168 -240 -20 -75 -20 -75 0 -51 11 13 21 22 23 20 11 -12
15 -48 6 -54 -5 -3 -10 -12 -10 -18 0 -7 7 -4 15 6 8 12 11 31 8 52 -7 46 46
143 110 201 69 61 80 44 13 -21 -32 -32 -67 -79 -85 -117 -27 -58 -29 -67 -19
-113 10 -47 11 -48 20 -25 9 23 11 24 17 5 6 -14 10 -7 15 30 7 57 49 136 95
180 27 25 33 27 41 15 7 -11 -1 -26 -29 -55 -56 -58 -80 -109 -116 -255 -5
-19 -4 -22 4 -10 10 13 11 13 12 0 0 -8 9 22 19 67 20 89 57 161 97 193 39 30
47 13 14 -28 -45 -56 -79 -131 -93 -205 -7 -37 -16 -61 -20 -54 -4 7 -6 2 -5
-11 1 -13 6 -21 14 -18 6 3 14 0 17 -7 2 -7 5 8 5 33 2 86 35 178 87 239 34
40 52 30 20 -12 -39 -51 -74 -136 -82 -196 -3 -31 -11 -64 -16 -75 -7 -12 -6
-22 0 -28 7 -7 13 2 17 28 22 136 39 186 81 241 33 44 50 33 19 -13 -35 -51
-65 -137 -72 -207 -4 -43 -9 -55 -14 -42 -5 13 -8 14 -8 5 0 -21 12 -45 24
-47 6 -1 10 25 11 60 0 34 6 80 14 102 14 45 70 138 78 131 3 -3 -7 -32 -21
-64 -47 -103 -61 -178 -47 -241 8 -35 15 -49 20 -41 6 9 9 6 13 -11 2 -13 5 7
6 44 1 68 28 168 58 213 25 39 27 21 5 -48 -32 -99 -57 -232 -42 -223 5 3 13
-14 19 -37 l11 -43 -6 40 c-3 22 -7 51 -9 65 -4 31 19 143 40 194 21 51 29 41
10 -13 -8 -23 -19 -79 -25 -124 -12 -98 -12 -97 -1 -97 4 0 11 37 13 83 4 55
13 98 27 128 17 35 20 38 15 14 -14 -71 -24 -154 -24 -210 0 -44 -3 -56 -10
-45 -8 11 -9 7 -4 -15 9 -38 14 -44 14 -17 0 12 4 22 10 22 5 0 7 20 3 48 -6
52 12 178 28 202 8 11 9 7 3 -15 -11 -43 -13 -299 -3 -283 7 11 11 10 20 -2 9
-12 9 -11 4 5 -18 48 -25 129 -16 188 l9 62 2 -95 c3 -92 4 -93 10 -35 l7 60
3 -50 c3 -47 4 -45 10 25 l6 75 2 -70 c2 -62 15 -131 37 -200 6 -19 6 -19 -8
-2 -8 10 -18 14 -21 9 -6 -11 38 -44 47 -35 3 3 -3 28 -15 57 -13 33 -21 81
-24 136 -3 84 -3 84 6 25 14 -88 19 -97 17 -32 -3 76 9 73 17 -5 4 -34 16 -84
27 -112 21 -57 23 -70 9 -61 -5 3 -17 30 -26 60 -10 30 -19 53 -22 51 -2 -3 3
-27 12 -54 9 -27 15 -56 14 -63 -2 -8 7 -14 24 -14 15 -1 24 3 22 7 -3 4 -1 8
5 8 5 0 -1 19 -14 42 -23 44 -51 155 -41 165 6 7 10 -3 26 -71 6 -27 18 -65
27 -85 9 -20 17 -43 17 -51 1 -8 8 -16 16 -16 8 -1 18 -3 23 -4 4 -1 17 -3 30
-3 16 -1 21 4 19 17 -2 11 1 15 7 11 8 -4 8 2 1 20 -6 15 -10 28 -10 30 0 5
127 -89 157 -116 33 -30 110 -195 128 -273 14 -58 15 -107 9 -290 -7 -249 2
-325 57 -484 108 -306 303 -539 568 -676 88 -45 209 -90 278 -101 l38 -7 -40
27 c-94 65 -108 77 -94 86 8 5 25 9 39 9 23 1 20 6 -32 54 -59 54 -67 66 -45
66 6 0 18 4 26 9 11 7 6 20 -29 61 -35 41 -40 54 -29 61 8 5 17 9 22 9 4 0 -6
27 -23 60 -16 33 -30 62 -30 65 0 3 18 2 39 -1 l40 -6 -20 62 c-29 94 -27 100
26 100 25 0 45 3 45 7 0 3 -11 29 -24 57 -13 28 -27 63 -30 79 -6 26 -5 27 38
27 25 0 47 4 50 8 3 5 -3 37 -13 73 -11 35 -22 79 -25 97 l-6 34 36 -21 c20
-12 39 -20 41 -17 3 2 -2 29 -11 59 -22 75 -21 84 14 90 l29 6 -49 86 c-28 48
-50 87 -50 88 0 1 23 0 51 -2 l51 -3 -36 53 c-20 30 -36 58 -36 62 0 8 61 2
103 -10 13 -3 3 15 -29 54 l-48 58 29 3 c16 2 75 2 131 0 l101 -3 -23 31 c-13
17 -24 34 -24 37 0 10 46 9 132 -5 43 -6 81 -8 85 -5 3 4 -4 21 -17 39 l-23
31 66 -7 c37 -3 74 -9 83 -13 15 -5 16 -1 11 30 -5 34 -4 36 25 42 17 4 59 4
95 0 l64 -7 -20 41 c-12 22 -21 43 -21 46 0 7 84 5 148 -4 54 -8 59 -4 42 29
-6 10 -7 21 -3 23 5 3 46 -1 93 -9 47 -7 87 -14 89 -14 2 0 0 16 -4 36 -5 31
-4 35 12 31 10 -3 40 -8 66 -12 l48 -6 -6 34 -7 35 69 -13 c37 -7 70 -11 73
-9 8 9 -137 140 -208 187 -97 65 -248 139 -349 170 -159 50 -395 58 -557 17
-39 -10 -143 -43 -231 -74 l-160 -56 -157 0 -157 0 -35 30 c-97 86 -80 249 38
358 l46 42 60 -59 c94 -93 219 -140 372 -141 142 0 309 53 351 112 11 14 22
49 25 77 4 41 -1 61 -22 106 -15 30 -34 55 -41 55 -26 0 -121 -40 -155 -65
l-33 -24 -27 42 c-15 23 -25 45 -23 50 2 4 34 7 71 7 47 0 87 8 137 27 39 14
93 28 122 30 49 5 54 3 97 -38 26 -23 61 -68 78 -101 66 -125 192 -183 393
-182 80 0 112 5 158 23 132 52 194 135 204 274 7 95 -8 178 -53 284 -27 63
-34 92 -32 129 l3 47 63 13 c35 7 83 22 106 33 88 43 176 161 176 238 0 42
-25 105 -48 119 -9 6 -42 18 -72 27 -60 18 -150 88 -175 138 -8 15 -15 46 -15
69 0 41 -15 54 -28 23 -8 -21 -26 -25 -103 -26 -47 -1 -64 4 -100 28 -101 70
-211 199 -234 275 -8 24 -7 23 29 -8 68 -60 136 -30 136 61 l0 46 -35 -6 c-29
-5 -41 -1 -60 17 -14 13 -25 34 -25 47 0 21 -2 22 -21 13 -11 -7 -27 -26 -34
-43 -14 -32 -14 -31 -15 33 0 64 14 135 31 156 12 15 122 -1 154 -22 14 -9 28
-15 30 -12 9 9 -22 106 -48 151 -33 55 -85 93 -187 136 -41 17 -113 59 -160
92 -178 129 -308 173 -510 171 l-134 -1 -96 92 c-134 129 -259 215 -445 306
-168 83 -319 138 -470 170 l-90 19 34 -26z m134 -23 c165 -42 381 -135 536
-232 88 -54 255 -184 313 -244 l48 -48 -75 3 -74 4 -104 102 c-83 81 -130 116
-234 179 -71 42 -135 77 -141 77 -7 0 -12 5 -12 12 0 6 -3 9 -6 5 -3 -3 -16 3
-28 14 -11 11 -29 18 -38 15 -10 -2 -15 0 -12 5 5 8 -130 77 -161 83 -5 1 -20
7 -32 14 -28 16 -46 15 -37 0 4 -7 -3 -4 -17 7 -13 11 -26 21 -28 22 -13 8 30
1 102 -18z m-8 -79 c22 -11 47 -20 57 -20 47 0 307 -124 436 -209 50 -33 127
-94 170 -136 l77 -74 -70 -1 c-38 -1 -92 -5 -119 -9 l-49 -8 -59 59 c-33 33
-89 79 -126 102 -80 52 -212 119 -212 109 0 -5 -4 -3 -8 3 -15 22 -134 66
-231 85 -48 9 -60 14 -45 20 10 4 37 6 59 3 22 -2 63 -6 90 -8 140 -11 391
-138 566 -286 58 -49 65 -54 34 -20 -87 92 -208 180 -345 248 -74 37 -139 67
-145 67 -5 0 -13 4 -16 8 -3 5 -20 9 -37 9 -17 1 -33 7 -36 14 -3 7 -22 16
-43 19 -38 7 -103 32 -103 40 0 15 120 3 155 -15z m-72 -67 c-7 -2 -19 -2 -25
0 -7 3 -2 5 12 5 14 0 19 -2 13 -5z m-23 -102 c119 -16 147 -24 232 -64 155
-73 355 -218 317 -231 -8 -3 -50 -17 -94 -31 -104 -34 -263 -112 -344 -168
l-65 -45 -67 34 c-68 34 -195 74 -235 74 -12 0 -24 5 -26 10 -2 6 -34 13 -71
16 -38 3 -78 9 -90 13 -18 7 -13 10 31 20 29 6 70 11 90 11 35 0 244 -40 287
-55 19 -6 19 -6 3 8 -10 7 -53 22 -95 31 -43 10 -87 22 -98 27 -11 4 -42 11
-70 15 -27 3 -70 9 -95 13 l-45 7 54 13 c89 22 206 10 349 -37 67 -22 122 -38
122 -36 0 2 -22 15 -48 28 -76 38 -220 76 -323 84 -89 7 -93 8 -69 22 18 11
56 14 140 14 109 -1 121 -3 226 -41 61 -23 126 -48 143 -57 53 -28 34 -9 -28
28 -109 63 -294 113 -434 115 -42 1 -43 21 -1 21 14 0 23 3 21 8 -3 4 50 4
116 1 109 -5 132 -10 217 -42 52 -21 129 -53 170 -72 68 -32 72 -33 45 -10
-52 44 -286 145 -337 145 -10 0 -18 5 -18 11 0 8 -14 9 -42 5 -26 -4 -38 -3
-30 2 16 11 -30 22 -89 22 -21 0 -40 4 -43 9 -14 22 161 30 234 11 19 -5 51
-11 70 -14 19 -2 54 -11 77 -20 44 -16 261 -127 303 -156 49 -33 54 -31 15 6
-86 79 -196 137 -378 198 -80 27 -196 56 -224 56 -2 0 -1 5 2 10 8 14 39 12
195 -9z m1517 -407 c-3 -3 -12 -4 -19 -1 -8 3 -5 6 6 6 11 1 17 -2 13 -5z
m-1800 -39 c79 -18 281 -81 303 -95 11 -7 4 -17 -35 -51 -115 -99 -288 -297
-329 -378 -12 -23 -30 -31 -120 -56 -58 -16 -106 -33 -106 -38 0 -4 -3 -6 -7
-4 -13 8 -55 -12 -48 -22 3 -6 -3 -9 -12 -9 -10 0 -27 -3 -38 -7 -17 -7 -17
-5 5 19 14 15 24 31 24 34 -1 4 2 6 8 4 5 -1 21 6 36 16 35 25 125 58 182 67
69 11 85 26 20 19 -46 -5 -227 -60 -292 -89 -30 -12 -20 9 13 27 17 10 27 23
24 29 -4 6 -1 9 6 8 21 -4 60 11 54 21 -3 4 5 8 18 8 12 0 49 9 82 21 33 11
89 24 125 29 l65 9 -66 2 c-60 1 -134 -14 -318 -65 -37 -11 -18 11 31 34 24
11 80 30 126 42 46 12 81 25 78 27 -5 5 -43 -2 -164 -31 -53 -12 -61 -12 -52
-1 19 22 109 52 201 67 58 9 74 14 51 16 -18 2 -77 -4 -131 -12 -125 -20 -145
-20 -111 -1 14 8 32 14 41 15 8 0 20 5 27 12 6 6 22 13 34 14 13 1 57 7 98 13
41 6 107 11 145 11 50 1 64 4 50 10 -11 5 -93 9 -183 8 -89 0 -165 2 -168 5
-3 3 26 15 66 27 59 18 92 21 191 18 65 -2 119 0 119 3 0 4 -46 10 -102 15
-57 4 -116 9 -133 10 -16 1 -49 3 -72 3 -24 1 -43 5 -43 10 0 25 178 41 320
28 95 -9 64 6 -45 22 -112 15 -235 38 -241 44 -3 3 28 8 70 12 66 6 179 -2
280 -22 17 -3 26 -1 23 4 -4 6 -47 16 -97 23 -49 7 -90 17 -90 21 0 5 -15 9
-32 8 -35 -1 -138 31 -138 43 0 4 39 9 88 11 48 1 90 4 94 5 4 1 37 -5 75 -13z
m1453 1 c0 -2 -8 -10 -17 -17 -16 -13 -17 -12 -4 4 13 16 21 21 21 13z m511
-83 c13 -16 12 -17 -3 -4 -17 13 -22 21 -14 21 2 0 10 -8 17 -17z m-1601 -27
c0 -2 -8 -10 -17 -17 -16 -13 -17 -12 -4 4 13 16 21 21 21 13z m-43 -39 c0 -8
-6 -14 -14 -14 -9 0 -10 4 -2 14 6 7 12 13 14 13 1 0 2 -6 2 -13z m526 -82
c-3 -9 -8 -14 -10 -11 -3 3 -2 9 2 15 9 16 15 13 8 -4z m566 -8 c-2 -1 -13 -9
-24 -17 -19 -14 -19 -14 -6 3 7 9 18 17 24 17 6 0 8 -1 6 -3z m-6 -72 c-3 -9
-8 -14 -10 -11 -3 3 -2 9 2 15 9 16 15 13 8 -4z m-1283 -39 c0 -2 -7 -7 -16
-10 -8 -3 -12 -2 -9 4 6 10 25 14 25 6z m1740 -33 c17 -8 30 -19 30 -24 0 -6
4 -8 8 -5 5 3 9 0 9 -7 0 -7 16 -38 36 -70 73 -120 92 -305 46 -449 -20 -63
-32 -82 -88 -140 -76 -76 -119 -94 -214 -85 -150 13 -234 111 -245 284 -6 106
16 201 70 303 94 177 230 252 348 193z m-1073 -125 c-3 -8 -6 -5 -6 6 -1 11 2
17 5 13 3 -3 4 -12 1 -19z m-1412 -18 c-4 -6 -10 -8 -15 -5 -4 3 -10 -2 -14
-10 -3 -8 -11 -15 -18 -15 -28 0 -125 -170 -144 -250 l-8 -35 -6 35 c-8 43 16
114 56 168 49 67 91 110 110 115 33 8 45 7 39 -3z m55 -11 c-104 -63 -192
-221 -218 -391 l-9 -53 -13 45 c-15 55 -6 97 47 208 53 112 152 210 213 212 8
0 -1 -10 -20 -21z m42 -17 c-40 -35 -61 -69 -24 -41 15 13 16 12 3 -3 -7 -10
-16 -16 -20 -13 -9 5 -45 -35 -38 -42 3 -2 -2 -13 -11 -24 -27 -31 -80 -171
-91 -240 -13 -77 -14 -199 -2 -199 4 0 11 41 14 90 4 58 16 118 32 163 14 40
26 78 27 85 1 6 5 12 10 12 4 0 8 5 8 10 0 6 9 21 20 33 11 12 18 27 15 35 -3
8 0 10 7 6 8 -5 9 -2 5 9 -4 10 -2 16 6 14 7 -1 11 5 9 13 -2 8 0 12 4 7 4 -4
25 9 46 30 21 20 38 32 38 25 0 -7 -11 -22 -25 -34 -13 -11 -22 -26 -18 -31 4
-6 1 -7 -7 -2 -10 6 -12 4 -7 -9 5 -11 3 -15 -5 -10 -8 5 -9 2 -5 -9 4 -10 2
-16 -6 -14 -7 1 -13 -5 -13 -13 -1 -8 -2 -21 -3 -28 0 -7 -6 -10 -13 -6 -8 5
-9 2 -5 -10 4 -9 3 -15 -2 -12 -10 7 -46 -97 -65 -186 -14 -65 -12 -179 3
-220 5 -15 10 13 14 87 6 116 30 216 65 274 12 19 19 38 16 43 -3 4 -1 8 5 8
6 0 23 26 37 57 34 70 45 51 14 -21 -33 -73 -47 -107 -56 -136 -40 -124 -54
-258 -34 -320 6 -18 9 -4 10 50 4 117 17 153 19 49 2 -159 47 -331 111 -425
35 -52 22 -47 -60 22 -85 73 -154 166 -218 294 -51 103 -57 121 -56 175 1 75
24 165 68 259 43 94 88 154 150 200 63 47 83 46 28 -2z m102 32 c14 -5 14 -9
-1 -35 -23 -38 -33 -37 -33 6 0 35 5 40 34 29z m-326 -51 c-9 -10 -30 -40 -48
-68 -27 -42 -31 -45 -25 -20 3 17 23 47 43 68 36 37 58 52 30 20z m636 -32
c-11 -19 -31 -33 -58 -41 -51 -15 -166 -71 -166 -80 0 -4 -11 -12 -25 -18 -32
-15 -32 -4 -1 30 14 14 22 29 18 34 -4 4 -2 4 4 1 7 -4 18 0 25 9 17 21 82 54
149 75 74 23 74 23 54 -10z m-284 -9 c0 -5 -7 -17 -15 -28 -24 -31 -19 -44 15
-37 17 3 30 3 30 0 0 -3 -11 -25 -25 -48 -31 -55 -31 -61 1 -49 14 6 27 10 29
10 2 0 -6 -18 -18 -41 -19 -37 -24 -40 -51 -35 -16 4 -31 8 -34 10 -2 3 1 28
7 56 6 28 11 78 11 110 0 57 1 60 25 60 14 0 25 -4 25 -8z m1147 -44 c-3 -8
-6 -5 -6 6 -1 11 2 17 5 13 3 -3 4 -12 1 -19z m1503 -4 c0 -20 -30 -30 -40
-13 -11 17 7 40 26 32 8 -3 14 -12 14 -19z m-2410 -9 c0 -25 -36 -64 -72 -80
-24 -11 -49 -26 -56 -35 -8 -8 -11 -9 -7 -3 4 9 1 11 -9 7 -9 -3 -13 -11 -9
-18 3 -6 3 -8 -2 -4 -4 4 -21 -2 -36 -13 -37 -26 -37 -11 -2 27 15 16 26 32
25 37 -1 4 4 7 11 7 8 0 22 9 32 20 10 11 22 17 26 14 5 -3 9 -1 9 4 0 6 17
17 38 25 41 17 52 20 52 12z m847 -67 c-3 -8 -6 -5 -6 6 -1 11 2 17 5 13 3 -3
4 -12 1 -19z m-110 -40 c-3 -8 -6 -5 -6 6 -1 11 2 17 5 13 3 -3 4 -12 1 -19z
m1593 1 c0 -6 -4 -7 -10 -4 -5 3 -10 11 -10 16 0 6 5 7 10 4 6 -3 10 -11 10
-16z m-2660 -34 c-16 -47 -23 -40 -8 8 6 20 13 35 16 33 2 -3 -1 -21 -8 -41z
m260 -4 c-16 -27 -28 -37 -38 -33 -9 3 -13 1 -9 -5 9 -14 -43 -7 -57 8 -8 9
-8 10 2 5 6 -4 12 -2 12 3 0 6 6 11 14 11 8 0 16 3 18 8 4 10 71 52 76 47 2
-2 -6 -22 -18 -44z m70 -19 c-1 -34 -27 -55 -57 -47 -16 4 -22 10 -15 12 7 3
17 16 22 29 7 17 14 22 26 17 13 -5 15 -3 9 7 -5 9 -4 11 3 6 7 -4 12 -15 12
-24z m587 -34 c-3 -8 -6 -5 -6 6 -1 11 2 17 5 13 3 -3 4 -12 1 -19z m-684 -25
c125 -31 230 -73 322 -130 60 -36 155 -115 155 -129 0 -2 -9 -13 -21 -25 -11
-11 -19 -28 -17 -37 2 -9 -7 -26 -19 -39 -26 -25 -29 -44 -11 -76 7 -12 11
-32 9 -45 -1 -13 4 -33 12 -46 8 -12 13 -34 10 -48 -3 -15 -1 -34 5 -44 7 -13
6 -24 -5 -40 -8 -13 -12 -32 -8 -43 9 -28 -24 -35 -160 -35 -135 1 -313 33
-299 55 3 6 10 6 17 1 7 -5 35 -13 62 -16 28 -4 59 -10 70 -13 13 -3 16 -2 10
4 -5 5 -56 24 -111 42 -113 36 -166 67 -189 111 -8 16 -15 32 -15 35 0 3 31
-10 68 -29 74 -37 204 -80 224 -74 6 2 -10 10 -38 17 -74 20 -251 109 -274
138 -33 42 -23 45 42 12 57 -29 180 -79 194 -79 15 0 -9 19 -32 24 -15 4 -73
29 -130 57 -98 46 -104 51 -104 79 0 17 5 30 10 30 6 0 10 -3 10 -7 0 -8 66
-42 90 -47 8 -2 28 -8 43 -14 60 -25 182 -62 202 -61 14 0 16 2 5 6 -78 29
-221 88 -292 122 -76 35 -88 44 -88 65 l0 25 83 -30 c172 -64 273 -99 287 -98
27 0 -63 41 -187 85 -180 64 -193 70 -193 93 0 12 6 21 13 21 26 0 238 -61
316 -91 45 -17 84 -29 87 -26 3 2 -37 23 -88 45 -83 36 -138 54 -285 92 -36 9
-43 15 -43 35 0 28 -12 28 161 -6 52 -10 137 -34 189 -54 52 -19 95 -33 97
-31 5 5 -104 56 -165 77 -29 10 -102 28 -163 40 -100 20 -110 24 -107 43 3 19
9 21 58 18 86 -4 208 -29 303 -61 48 -16 87 -28 87 -25 0 10 -113 55 -183 74
-40 10 -111 24 -159 31 -89 12 -93 14 -81 44 5 15 15 16 65 11 33 -4 106 -19
161 -33z m338 -100 c13 -15 12 -15 -11 -3 -34 17 -36 20 -18 20 9 0 22 -7 29
-17z m373 -67 c-3 -15 -8 -25 -11 -23 -2 3 -1 17 3 31 3 15 8 25 11 23 2 -3 1
-17 -3 -31z m123 2 c-3 -7 -5 -2 -5 12 0 14 2 19 5 13 2 -7 2 -19 0 -25z
m2023 -32 c0 -2 -7 -7 -16 -10 -8 -3 -12 -2 -9 4 6 10 25 14 25 6z m-993 -152
c-3 -3 -12 -4 -19 -1 -8 3 -5 6 6 6 11 1 17 -2 13 -5z m-147 -48 c0 -2 -8 -10
-17 -17 -16 -13 -17 -12 -4 4 13 16 21 21 21 13z m520 -122 c0 -8 -19 -13 -24
-6 -3 5 1 9 9 9 8 0 15 -2 15 -3z m-1334 -57 c3 -21 1 -21 -20 2 -17 19 -17
19 0 17 9 -2 18 -10 20 -19z m-429 -2 c0 -8 -4 -12 -9 -9 -5 3 -6 10 -3 15 9
13 12 11 12 -6z m1427 -81 c3 -8 2 -12 -4 -9 -6 3 -10 10 -10 16 0 14 7 11 14
-7z m-1959 -12 c-3 -3 -11 0 -18 7 -9 10 -8 11 6 5 10 -3 15 -9 12 -12z m2885
-68 c0 -8 -19 -13 -24 -6 -3 5 1 9 9 9 8 0 15 -2 15 -3z m-1515 -152 c-3 -3 0
-11 6 -19 17 -20 5 -16 -14 5 -15 16 -15 19 -2 19 8 0 13 -3 10 -5z m-775
-217 c7 -9 8 -15 2 -15 -5 0 -12 7 -16 15 -3 8 -4 15 -2 15 2 0 9 -7 16 -15z
m1152 -171 c25 -37 28 -54 8 -54 -13 0 -70 86 -63 94 12 12 28 0 55 -40z m199
-69 c-17 -38 -51 -86 -80 -115 -28 -27 -46 -50 -41 -50 17 0 110 101 130 140
11 22 25 57 30 77 l10 38 -4 -45 c-4 -59 -26 -104 -79 -164 -39 -43 -48 -48
-117 -63 -125 -26 -333 -5 -393 39 -14 11 -7 13 48 15 97 3 219 43 280 92 12
9 9 5 -5 -9 -14 -14 -36 -33 -50 -43 -19 -13 -14 -12 18 3 24 12 77 55 117 96
40 41 75 74 79 74 11 0 -61 -94 -101 -131 -21 -20 -56 -48 -78 -63 -22 -14
-33 -26 -24 -26 46 0 178 120 218 199 12 22 26 41 31 41 28 0 -61 -140 -127
-199 -69 -61 -61 -67 14 -10 57 45 127 139 139 191 l8 33 4 -28 c2 -17 -9 -54
-27 -92z m-2006 32 c-26 -23 -61 -59 -76 -80 -37 -52 -38 -34 -1 24 34 52 115
126 121 108 2 -6 -18 -30 -44 -52z m1765 16 c33 -52 36 -63 17 -63 -12 0 -87
89 -87 104 0 3 9 6 20 6 13 0 31 -16 50 -47z m-45 -23 c33 -45 38 -70 16 -70
-9 0 -91 102 -91 113 0 4 9 7 19 7 12 0 34 -20 56 -50z m-67 -2 c62 -74 65
-78 49 -84 -15 -5 -117 89 -117 108 0 20 44 5 68 -24z m2 -102 c-8 -8 -138 89
-139 106 -1 3 7 8 17 11 22 5 136 -103 122 -117z m-112 54 c29 -28 58 -50 64
-50 9 0 9 -3 1 -11 -17 -17 -37 -8 -102 46 -40 33 -56 52 -48 57 21 13 31 8
85 -42z m528 -4 c-8 -31 -61 -103 -87 -116 -14 -8 -9 4 20 40 22 28 46 70 53
93 13 43 25 28 14 -17z m-1996 31 c0 -7 -16 -29 -36 -48 -47 -45 -79 -95 -95
-150 -17 -59 -30 -73 -28 -29 3 55 64 174 106 209 41 34 53 38 53 18z m1459
-80 c14 -9 22 -20 18 -24 -9 -9 -58 19 -115 66 -38 30 -41 36 -25 42 13 4 30
-4 58 -30 22 -20 51 -44 64 -54z m-109 38 c14 -15 39 -36 55 -46 l30 -19 -32
0 c-45 0 -146 86 -120 102 14 9 36 -3 67 -37z m-1539 -78 c-10 -9 -11 -8 -5 6
3 10 9 15 12 12 3 -3 0 -11 -7 -18z m-20 -40 c-10 -9 -11 -8 -5 6 3 10 9 15
12 12 3 -3 0 -11 -7 -18z m339 -84 c0 -3 -12 -31 -26 -62 -15 -30 -34 -93 -44
-140 -16 -80 -17 -83 -24 -49 -8 46 16 145 51 211 23 41 43 60 43 40z m2091
-83 c142 -12 244 -42 394 -116 114 -56 265 -156 265 -176 0 -7 -7 -5 -17 4
-10 8 -43 28 -73 44 -30 16 -57 32 -60 35 -3 4 -16 9 -30 13 -14 4 -48 18 -76
32 -28 14 -64 27 -80 30 -16 3 -49 14 -74 26 -25 11 -54 21 -65 23 -11 1 -49
10 -85 19 -70 17 -247 21 -315 7 -33 -7 -23 -9 60 -12 55 -1 110 -2 123 -1 12
0 22 -3 22 -8 0 -12 106 -33 132 -25 15 4 18 3 10 -3 -8 -6 20 -22 90 -52 57
-24 120 -54 142 -68 21 -13 47 -22 57 -19 11 3 16 1 13 -4 -6 -10 34 -48 50
-49 6 0 23 -12 38 -27 25 -23 30 -25 39 -13 8 13 9 12 7 -2 -2 -9 6 -24 17
-33 20 -16 19 -16 -5 -11 -14 3 -38 6 -55 6 -23 0 -27 3 -15 10 13 8 13 10 -2
10 -9 0 -38 11 -65 25 -26 14 -53 23 -61 20 -7 -2 -10 0 -7 5 3 6 -2 13 -12
16 -10 3 -26 10 -36 15 -10 5 -22 7 -27 4 -6 -4 -10 -2 -10 3 0 21 -322 112
-339 96 -5 -4 -1 -6 119 -38 85 -24 172 -62 297 -130 23 -13 41 -25 39 -27 -2
-2 10 -15 27 -29 17 -14 28 -18 23 -10 -4 8 0 6 9 -5 31 -38 3 -31 -160 41
-16 7 -32 11 -36 8 -4 -2 -9 3 -13 11 -3 8 -14 15 -24 15 -11 0 -36 7 -56 15
-19 8 -50 17 -68 19 -18 3 -51 11 -73 19 -53 19 -133 32 -120 20 6 -6 33 -16
60 -23 106 -26 325 -150 325 -183 0 -8 -41 3 -85 23 -101 45 -230 87 -290 95
-102 12 -194 15 -235 8 -42 -9 -38 -10 54 -16 55 -4 104 -11 109 -16 5 -5 16
-7 23 -4 8 3 14 0 14 -7 0 -7 6 -10 14 -7 8 3 16 3 18 -1 6 -13 76 -44 86 -38
6 4 14 1 18 -5 5 -8 2 -10 -7 -5 -8 4 -6 1 5 -6 103 -71 145 -124 66 -85 -16
9 -44 18 -62 22 -18 4 -42 13 -54 20 -11 7 -38 16 -58 19 -21 4 -41 8 -45 10
-3 2 -51 7 -106 10 l-100 5 85 -28 c99 -32 170 -67 170 -82 0 -6 7 -8 16 -5 8
3 13 2 9 -3 -3 -5 2 -17 11 -26 26 -26 10 -27 -52 -4 -33 12 -73 22 -91 23
-17 0 -29 4 -27 8 5 8 -10 12 -107 27 -80 13 -146 14 -153 2 -3 -4 25 -11 62
-13 48 -4 88 -15 142 -40 67 -31 120 -71 109 -82 -2 -3 -31 3 -64 11 -33 9
-89 18 -125 20 -36 2 -92 6 -125 8 l-60 4 51 -17 c27 -9 64 -27 81 -39 17 -12
34 -19 38 -15 5 4 5 2 2 -5 -4 -6 -1 -14 5 -17 7 -3 -14 -5 -47 -4 -33 0 -67
5 -76 9 -9 4 -49 10 -90 13 -41 2 -82 8 -91 11 -11 4 -18 3 -18 -4 0 -6 11
-13 25 -17 13 -3 29 -12 36 -20 7 -9 20 -12 32 -8 12 4 17 2 13 -4 -3 -6 -3
-12 2 -14 4 -1 18 -19 30 -39 l22 -36 -38 7 c-20 4 -54 14 -76 23 -47 21 -52
21 -36 2 7 -8 17 -15 22 -15 12 0 38 -26 38 -37 0 -5 11 -25 25 -45 14 -20 25
-39 25 -42 0 -13 -106 36 -131 60 -47 45 -42 22 5 -26 24 -25 42 -49 39 -54
-3 -4 -1 -11 4 -15 6 -3 29 -35 52 -70 31 -48 38 -67 29 -72 -8 -5 -15 -3 -17
4 -4 13 -21 27 -34 27 -5 0 -5 -6 -1 -12 4 -8 3 -10 -2 -5 -5 5 -9 14 -9 20
-1 7 -7 11 -14 9 -7 -1 -10 2 -6 7 3 6 -5 15 -17 22 -13 6 -49 39 -80 73 -64
68 -77 64 -23 -7 19 -25 35 -50 35 -54 0 -5 19 -29 43 -54 23 -25 39 -41 35
-35 -5 5 -8 14 -8 20 0 5 6 1 14 -9 8 -11 12 -24 9 -30 -2 -7 5 -23 17 -36 17
-21 19 -21 14 -4 -4 15 -4 17 4 6 6 -8 8 -20 5 -28 -3 -7 0 -13 6 -13 6 0 11
-7 11 -15 0 -18 -9 -19 -33 0 -11 7 -28 12 -39 10 -11 -3 -18 -2 -15 1 3 3
-27 35 -67 72 -39 36 -83 85 -99 109 -15 24 -29 43 -32 43 -8 0 32 -99 52
-128 9 -15 18 -29 19 -32 0 -3 4 -13 9 -23 6 -15 10 -16 17 -5 7 9 8 8 4 -5
-4 -11 4 -33 21 -55 41 -56 41 -56 59 -41 16 13 16 12 5 -9 -7 -14 -8 -22 -1
-22 5 0 10 -6 10 -14 0 -8 12 -24 26 -35 15 -12 24 -21 20 -21 -4 0 1 -11 10
-25 9 -14 12 -25 6 -25 -25 0 -191 128 -192 148 0 6 -5 12 -11 12 -5 0 -7 -6
-3 -12 6 -10 3 -9 -8 0 -9 8 -15 19 -12 27 3 7 -4 19 -15 27 -12 8 -18 18 -14
21 3 4 2 7 -4 7 -6 0 -26 34 -44 75 -19 41 -37 75 -41 75 -16 0 62 -193 83
-206 5 -3 9 -12 9 -21 0 -21 61 -112 126 -188 43 -51 84 -113 84 -128 0 -3
-12 -4 -26 -5 -15 0 -21 4 -14 8 7 4 2 13 -16 25 -15 9 -63 53 -107 96 -44 43
-84 76 -88 74 -4 -3 -6 3 -5 13 0 10 -5 16 -14 14 -8 -2 -12 0 -8 4 4 4 0 13
-10 21 -9 8 -11 11 -3 7 15 -8 13 -3 -25 54 -12 18 -35 65 -50 105 -43 115
-53 108 -22 -17 12 -49 55 -143 69 -151 6 -4 8 -13 5 -21 -3 -8 3 -22 14 -31
11 -10 20 -25 20 -35 0 -9 6 -23 13 -30 7 -7 18 -24 25 -38 22 -43 94 -137
170 -218 35 -39 27 -56 -14 -27 -12 8 -24 12 -27 9 -3 -3 -8 0 -13 7 -5 8 -3
10 7 5 8 -4 5 -1 -5 8 -10 8 -23 13 -28 10 -5 -3 -7 -2 -6 3 2 4 1 8 -2 8 -3
0 -12 6 -20 13 -8 7 -24 20 -35 28 -11 9 -13 12 -5 8 8 -5 4 6 -10 23 -14 17
-27 29 -29 27 -2 -2 -15 12 -28 31 -13 20 -28 33 -34 30 -5 -4 -9 -3 -8 2 3
19 -2 34 -10 29 -5 -3 -34 46 -66 110 -31 64 -58 114 -60 112 -8 -8 26 -103
67 -187 50 -102 106 -184 120 -174 6 3 8 2 5 -3 -8 -13 -4 -18 82 -112 41 -45
78 -79 84 -75 6 3 7 1 3 -5 -4 -7 -3 -12 3 -12 6 0 15 -8 20 -17 7 -15 5 -18
-14 -18 -13 0 -21 3 -19 7 3 4 -10 15 -28 24 -18 9 -44 25 -57 35 -13 10 -27
16 -32 13 -5 -3 -9 1 -9 9 0 8 -7 18 -16 21 -15 6 -15 4 -3 -11 10 -14 10 -15
0 -6 -7 6 -19 22 -25 35 -6 12 -21 27 -34 33 -12 5 -22 12 -22 16 0 3 -11 18
-23 33 -13 15 -44 61 -68 101 -24 41 -47 75 -52 75 -9 0 35 -88 81 -160 36
-56 236 -260 256 -260 13 0 125 -99 113 -100 -4 0 -40 16 -79 35 -39 19 -76
31 -81 28 -6 -3 -7 -1 -3 5 4 6 -4 16 -16 23 -20 10 -22 10 -13 -2 6 -8 1 -4
-11 9 -11 13 -29 25 -40 26 -10 2 -18 8 -17 14 2 6 -6 14 -17 17 -25 8 -133
133 -183 213 -22 34 -42 61 -44 58 -8 -7 44 -100 90 -161 68 -90 217 -237 234
-231 8 3 11 2 8 -4 -7 -12 45 -39 65 -33 11 3 12 2 2 -5 -14 -9 16 -33 111
-86 26 -15 47 -29 47 -31 0 -3 -15 -4 -34 -2 -19 1 -32 5 -29 9 2 5 -4 8 -14
8 -10 0 -28 7 -41 15 -12 9 -35 17 -51 18 -16 1 -27 5 -25 9 7 11 -55 40 -68
32 -7 -5 -8 -3 -3 6 6 10 4 12 -9 7 -10 -4 -15 -3 -11 3 6 10 -74 66 -88 62
-5 -1 -6 2 -2 7 6 10 -33 37 -47 33 -5 -1 -8 3 -8 8 0 6 -22 34 -50 62 -27 28
-50 57 -50 64 0 7 -4 16 -10 19 -13 8 0 -24 23 -55 10 -14 31 -44 47 -67 52
-75 213 -202 245 -194 6 2 7 -1 3 -5 -4 -4 -2 -14 5 -22 10 -13 9 -14 -8 -5
-49 26 -154 111 -217 175 -158 161 -272 375 -324 610 -12 53 -15 112 -13 218
7 344 6 370 -20 447 -13 40 -43 107 -66 148 -24 41 -40 75 -37 75 4 0 18 -9
32 -20 14 -11 31 -20 38 -20 7 0 26 -10 42 -21 20 -15 45 -22 87 -24 32 -1 71
-8 86 -15 22 -11 33 -11 47 -2 13 8 29 8 54 1 22 -6 42 -6 53 -1 10 5 33 7 50
5 18 -3 41 -2 50 2 10 4 27 8 38 9 16 1 20 8 19 39 -1 20 3 37 7 37 14 0 11
33 -5 55 -12 18 -17 35 -30 115 -4 25 -16 68 -34 126 l-10 32 151 4 152 5 153
56 c170 63 283 89 407 95 17 1 82 -3 146 -8z m-1116 -120 c3 -5 1 -10 -4 -10
-6 0 -11 5 -11 10 0 6 2 10 4 10 3 0 8 -4 11 -10z m1330 -10 c3 -6 -1 -7 -9
-4 -18 7 -21 14 -7 14 6 0 13 -4 16 -10z m180 -41 c11 -16 1 -19 -13 -3 -7 8
-8 14 -3 14 5 0 13 -5 16 -11z m-2235 -108 c0 -9 11 -40 25 -69 29 -62 30 -69
11 -53 -17 15 -51 95 -60 141 -5 32 -5 34 9 16 8 -11 15 -27 15 -35z m40 -28
c0 -7 11 -36 25 -63 14 -28 21 -50 16 -50 -10 0 -54 86 -67 130 -6 22 -5 23
10 11 9 -7 16 -20 16 -28z m2475 -13 c-3 -5 -11 -10 -16 -10 -6 0 -7 5 -4 10
3 6 11 10 16 10 6 0 7 -4 4 -10z m-2430 -37 c8 -20 13 -38 10 -41 -4 -4 -35
59 -35 73 0 15 12 1 25 -32z m1252 -369 c-3 -3 -12 -4 -19 -1 -8 3 -5 6 6 6
11 1 17 -2 13 -5z m-196 -691 c13 -16 12 -17 -3 -4 -17 13 -22 21 -14 21 2 0
10 -8 17 -17z m-196 -43 l20 -25 -22 19 c-13 11 -23 24 -23 29 0 6 1 8 3 6 1
-2 11 -15 22 -29z m35 -61 c0 -5 -4 -9 -8 -9 -5 0 -9 7 -9 15 0 8 4 12 9 9 4
-3 8 -9 8 -15z m10 -319 c0 -5 -2 -10 -4 -10 -3 0 -8 5 -11 10 -3 6 -1 10 4
10 6 0 11 -4 11 -10z m50 -36 c0 -2 -9 0 -20 6 -11 6 -20 13 -20 16 0 2 9 0
20 -6 11 -6 20 -13 20 -16z m20 -124 c0 -5 -2 -10 -4 -10 -3 0 -8 5 -11 10 -3
6 -1 10 4 10 6 0 11 -4 11 -10z m38 -195 c4 -4 -11 0 -33 9 -22 10 -44 22 -50
27 -5 6 9 2 33 -9 23 -10 46 -22 50 -27z m52 -17 c0 -4 -4 -8 -9 -8 -6 0 -12
4 -15 8 -3 5 1 9 9 9 8 0 15 -4 15 -9z"/>
<path d="M1578 5663 c7 -3 16 -2 19 1 4 3 -2 6 -13 5 -11 0 -14 -3 -6 -6z"/>
<path d="M2887 4549 c-24 -14 -57 -85 -57 -124 0 -40 33 -111 58 -124 76 -41
162 31 162 134 0 42 -2 45 -19 35 -52 -27 -111 5 -111 60 0 32 -5 35 -33 19z
m38 -195 c0 -10 -8 -20 -17 -22 -18 -3 -26 27 -11 42 12 11 28 0 28 -20z"/>
<path d="M961 2284 c0 -11 3 -14 6 -6 3 7 2 16 -1 19 -3 4 -6 -2 -5 -13z"/>
<path d="M1022 2200 c0 -14 2 -19 5 -12 2 6 2 18 0 25 -3 6 -5 1 -5 -13z"/>
<path d="M1181 2164 c0 -11 3 -14 6 -6 3 7 2 16 -1 19 -3 4 -6 -2 -5 -13z"/>
<path d="M1188 2122 c-9 -33 7 -45 21 -16 6 15 9 29 6 32 -3 3 -5 -1 -5 -9 0
-11 -2 -12 -9 -1 -6 11 -9 9 -13 -6z"/>
<path d="M1450 2051 c0 -5 5 -13 10 -16 6 -3 10 -2 10 4 0 5 -4 13 -10 16 -5
3 -10 2 -10 -4z"/>
</g>
</svg>
