<?xml version="1.0" encoding="utf-8"?>
<!-- Generator: Adobe Illustrator 16.0.0, SVG Export Plug-In . SVG Version: 6.00 Build 0)  -->
<!DOCTYPE svg PUBLIC "-//W3C//DTD SVG 1.1//EN" "http://www.w3.org/Graphics/SVG/1.1/DTD/svg11.dtd">
<svg version="1.1" id="Calque_1" xmlns="http://www.w3.org/2000/svg" xmlns:xlink="http://www.w3.org/1999/xlink" x="0px" y="0px"
	 width="628.188px" height="595.28px" viewBox="0 0 628.188 595.28" enable-background="new 0 0 628.188 595.28"
	 xml:space="preserve">
<g>
	<path fill-rule="evenodd" clip-rule="evenodd" d="M456.976,407.859c7.741,7.773,14.993,16.127,23.33,23.195
		c15.228,12.912,33.72,19.084,52.918,23.326c5.746,1.271,5.755,1.229,6.504,7.512c-17.08-2.08-33.848-5.709-48.398-14.594
		c-11.624-7.098-22.606-15.906-32.109-25.674c-17.713-18.201-34.176-37.623-51.084-56.604c-6.065-6.809-5.979-6.719-12.286-0.549
		c-10.268,10.047-20.84,19.775-31.202,29.725c-3.212,3.084-6.152,6.453-9.703,10.205c2.718,1.922,5.016,3.545,7.611,5.383
		c-2.057,5.691-5.794,6.061-10.638,3.924c-3.959-1.748-8.029-3.439-10.473,2.223c5.484,4.684,5.484,4.684,14.25,3.533
		c0.29,2.537,0.578,5.064,0.838,7.357c-10.142,5.385-18.465-5.785-29.794-2.361c6.563,9.816,16.271,10.416,25.075,13.469
		c-2.931,5.652-7.257,7.736-12.505,5.293c-6.418-2.986-12.685-6.535-18.411-10.678c-3.562-2.578-5.683-2.596-8.678,1.51
		c7.258,13.732,21.154,14.197,34.048,15.994c0.636,8.502-0.028,9.285-6.992,8.359c-14.456-1.926-27.256-6.875-35.922-19.543
		c-1.002-1.463-2.848-2.346-5.112-2.713c2.809,9.086,8.585,15.99,16.808,20.082c8.173,4.064,17.043,6.73,26.017,10.166
		c-3.275,5.035-7.237,5.982-12.494,4.385c-14.697-4.459-27.581-11.465-36.767-24.283c-2.31-3.219-4.332-7.232-10.568-7.471
		c5.098,11.063,12.333,19.15,21.75,24.836c9.167,5.535,19.061,9.871,28.75,14.791c-0.974,7.602-1.441,7.936-8.399,5.604
		c-21.758-7.299-39.742-19.381-51.076-40.021c-1.149-2.092-3.041-3.773-5.646-4.893c3.15,12.309,9.585,22.965,19.003,30.783
		c9.583,7.957,20.857,13.877,31.905,21.021c-0.657,2.207-1.385,4.65-2.243,7.535c-8.289-1.623-14.999-5.35-21.346-9.736
		c-6.39-4.416-13.219-8.473-18.678-13.877c-5.243-5.186-8.961-11.912-13.383-17.936c-4.345-5.92-5.674-14.143-13.253-18.816
		c-2.616,5.455-1.654,9.699-0.566,14.033c4.332,17.232,15.89,29.332,29.052,39.988c6.231,5.045,13.597,8.684,20.443,12.967
		c1.988,1.242,3.962,2.506,6.476,4.1c-2.44,2.783-4.512,5.146-7.221,8.236c-15.345-8.672-31.378-16.424-42.346-30.879
		c-5.912-7.791-11.026-16.367-15.254-25.186c-2.491-5.195-2.399-11.598-3.767-17.385c-0.55-2.332-1.572-6.135-2.932-6.398
		c-4.342-0.842-4.155,3.518-4.611,6.139c-2.327,13.447-0.221,26.277,6.388,38.252c11.35,20.559,27.648,35.967,49.521,46.537
		c-0.598,2.752-1.199,5.502-1.923,8.828c-10.332-1.74-18.23-7.164-25.458-13.244c-19.135-16.102-35.371-34.375-39.451-60.299
		c-0.961-6.113-0.491-12.469-0.477-18.711c0.007-3.281,2.77-7.922-3.171-8.256c-5.438-0.303-4.848,4.645-4.651,7.941
		c0.555,9.246,0.921,18.6,2.65,27.664c6.224,32.643,21.477,60.15,48.653,81.451c-1.384,0.943-2.466,1.605-3.458,2.383
		c-1.146,0.896-2.211,1.895-3.241,2.791c-34.359-24.895-55.51-69.561-54.953-125.027c-2.415-0.246-4.908-0.5-8.671-0.883
		c-0.158,27.021,7.718,51.203,17.133,75.135c9.448,24.016,23.805,44.82,41.369,63.996c-5.199,4.434-8.783,2.02-11.914-1.494
		c-12.013-13.492-22.533-28.066-30.455-44.336c-9.739-20-17.032-40.92-21.409-62.734c-1.7-8.465-2.628-17.174-2.894-25.805
		c-0.188-6.055-2.271-9.383-7.98-11.256c-7.97-2.615-15.936-5.381-23.579-8.809c-12.832-5.756-25.385-12.129-38.101-18.146
		c-7.69-3.639-11.886-10.611-16.6-17.078c-2.445-3.359,0.06-5.504,2.334-7.578c4.605-4.205,9.001-8.672,13.862-12.559
		c7.991-6.395,12.347-15.131,16.403-24.1c3.85-8.51,3.709-17.102-1.533-24.863c-8.371-12.395-17.144-24.52-26.022-36.555
		c-1.884-2.555-5.013-4.167-7.46-6.333c-7.833-6.929-7.811-6.951-8.461-15.068c4.64-6.61,8.36-11.909,13.083-18.639
		c6.873,8.86,12.102,15.31,17.015,21.994c10.814,14.715,21.278,29.651,28.611,46.533c5.574,12.832,6.029,25.514-0.436,38.148
		c-3.939,7.701-7.945,15.369-12.417,24.01c5.382,2.408,10.345,5.209,15.67,6.736c2.245,0.643,5.444-1.029,7.887-2.283
		c5.649-2.898,10.754-2.609,12.958,2.986c4.892,12.426,15.702,10.514,25.094,13.01c0.836-9.607,1.961-18.164,2.169-26.738
		c0.107-4.402,0.942-7.584,4.011-11.063c4.704-5.336,3.652-9.045-2.155-13.154c-1.667-1.178-3.424-2.225-5.315-3.445
		c1.761-7.875,8.43-0.191,13.148-3.939c-3.48-1.375-5.99-2.369-9.202-3.635c3.398-6.211-1.303-15.49,8.397-20.238
		c-2.579-0.654-5.157-1.307-8.689-2.203c1.352-2.25,2.681-3.783,3.243-5.558c0.868-2.745,2.591-6.431,1.512-8.346
		c-2.84-5.047-1.422-9.874-0.888-14.758c0.809-7.384,1.872-14.752,3.199-22.059c0.445-2.45,2.297-4.615,3.002-7.056
		c0.525-1.817,1.077-4.491,0.174-5.713c-4.597-6.212-2.915-12.497-0.99-18.883c0.849-2.819,1.84-5.595,2.811-8.521
		c6.827,2.42,13.13,5.071,19.676,6.818c3.938,1.05,8.406,1.549,12.364,0.82c17.869-3.294,35.176-2.085,52.049,4.82
		c14.691,6.013,29.416,11.946,44.138,17.887c2.35,0.949,4.758,1.759,7.381,2.096c-23.61-27.922-47.646-54.862-85.858-62.688
		c-14.605-2.992-28.864-4.63-43.299,0.486c-1.877,0.666-4.409-0.511-6.95-1.832c6.956-3.735,6.764-10.119,7.52-15.783
		c3.902-29.227,15.868-55.172,32.689-78.908c12.31-17.368,29.237-29.804,47.238-41c2.09,2.469,3.906,4.617,6.096,7.206
		c-31.807,17.049-53.149,43.277-65.951,76.517c-5.078,13.183-11.356,26.342-9.471,41.445c6.435,1.574,7.483-1.713,7.972-6.607
		c0.919-9.184,1.874-18.27,5.677-27.049c6.616-15.28,16.745-27.651,29.316-38.092c14.185-11.78,29.907-20.822,48.858-24.796
		c0.472,1.976,0.96,3.566,1.203,5.195c0.218,1.457,0.161,2.954,0.265,5.336c-4.41,1.382-9.056,2.408-13.348,4.255
		c-19.645,8.455-36.47,20.619-48.769,38.412c-6.991,10.114-10.084,21.672-11.559,33.681c-0.331,2.702,0.538,5.552,0.854,8.333
		c0.761,0.217,1.522,0.435,2.283,0.652c1.25-1.635,3.148-3.091,3.651-4.93c8.172-29.928,29.523-46.971,56.742-58.246
		c6.59-2.729,13.41-4.906,20.438-7.449c1.547,3.488,2.929,6.595,4.581,10.321c-2.063,0.887-4.085,2.046-6.265,2.648
		c-21.401,5.917-39.722,16.944-53.842,34.056c-4.445,5.388-6.836,12.523-9.817,19.02c-0.549,1.192,0.59,3.159,0.949,4.768
		c1.838-0.45,4.315-0.297,5.405-1.452c5.135-5.44,9.898-11.229,14.774-16.912c13.776-16.05,32.285-23.318,52.167-27.838
		c5.417-1.231,6.078,0.061,5.61,9.556c-25.27,5.457-47.572,16.342-60.078,41.814c1.673-1.027,3.505-1.865,4.994-3.114
		c7.989-6.706,15.279-14.471,23.974-20.057c12.241-7.863,26.445-10.77,40.836-12.012c3.379,8.071,2.724,9.327-5.349,10.586
		c-19.121,2.985-36.357,9.689-49.228,24.983c-1.086,1.29-2.059,2.674-3.083,4.015c0.362,0.526,0.724,1.051,1.084,1.577
		c2.383-1.25,4.946-2.248,7.112-3.8c4.869-3.488,9.466-7.354,14.307-10.88c10.044-7.315,21.668-9.852,33.765-10.863
		c5.1-0.425,7.353,3.087,10.653,8.17c-5.521,0.462-10.045,1.051-14.582,1.183c-16.746,0.487-28.446,9.696-38.403,21.965
		c-0.25,0.308,0.077,1.084,0.32,3.372c2.784-1.855,5.414-2.936,7.11-4.845c10.77-12.133,24.516-15.32,39.956-13.962
		c7.224,0.635,7.496,0.884,6.612,9.967c-3.983-0.341-8.024-0.689-12.065-1.033c-11.798-1.003-20.836,4.398-28.342,12.731
		c-1.153,1.28-0.506,4.183-0.692,6.336c1.916-0.1,4.551,0.58,5.635-0.42c9.312-8.598,20.187-12.647,33.871-11.599
		c0.787,1.521,2.088,4.035,3.598,6.954c-6.418,1.156-12.448,1.475-17.887,3.436c-5.471,1.973-10.354,5.579-15.472,8.455
		c4.109,7.464,4.545,7.908,9.379,4.222c5.688-4.334,11.925-5.387,18.65-4.876c2.963,0.225,7.445-1.096,7.157,4.228
		c-0.242,4.495-4.103,3.674-6.913,3.457c-7.121-0.552-12.967,1.251-17.562,8.988c1.598,1.428,3.308,2.955,4.802,4.291
		c15.315-8.361,18.394-8.257,21.534,0.191c-4.661,2.015-9.346,4.04-15.354,6.637c12.002,12.922,20.646,26.409,35.23,33.95
		c4.793,2.479,9.484,5.15,14.272,7.637c8.348,4.336,8.364,4.306,13.354-3.774c11.98-19.403,25.36-37.521,41.996-53.466
		c19.271-18.468,37.925-37.471,60.715-51.75c7.423-4.651,15.424-4.905,23.539-4.662c0.32,0.782,0.641,1.563,0.96,2.345
		c-1.69,0.996-3.303,2.667-5.087,2.875c-10.479,1.228-19.218,5.858-27.568,12.129c-26.027,19.542-48.961,42.336-69.926,67.031
		c-8.075,9.511-13.928,20.913-20.717,31.503c-0.554,0.863-0.506,2.112-0.738,3.182c0.569,0.36,1.143,0.721,1.716,1.081
		c2.103-2.908,4.468-5.664,6.265-8.752c6.919-11.895,16.682-20.995,27.678-28.978c2.402-1.745,4.537-3.861,6.794-5.807
		c3.867-2.242,7.733-4.484,11.603-6.726c16.834-8.458,34.626-12.919,53.532-13.158c-0.17,3.55-0.326,6.797-0.548,11.41
		c-16.938-0.916-33.923,2.311-49.418,10.228c-15.327,7.833-29.919,17.144-39.008,32.501c0.427,0.522,0.854,1.044,1.281,1.567
		c5.737-5.08,11.059-10.769,17.33-15.069c6.368-4.367,13.409-8.075,20.643-10.767c7.519-2.797,15.528-4.75,23.491-5.743
		c7.641-0.954,15.492-0.207,23.974-0.207c-0.387,3.065-0.729,5.776-1.171,9.268c-29.555-1.505-55.864,5.35-75.984,28.068
		c0.25,0.682,0.503,1.363,0.753,2.044c2.081-0.926,4.364-1.556,6.212-2.821c20.157-13.806,42.754-17.932,66.648-16.999
		c1.475,0.058,2.94,0.372,5.223,0.674c0.694,2.916,1.413,5.929,2.354,9.879c-27.349-2.14-52.71,0.716-74.688,17.8
		c22.105-6.859,44.295-11.559,67.268-4.152c0,3.276,0,6.118,0,9.468c-23.767-4.154-46.771-4.376-69.166,5.149
		c22.058,9.305,45.596,7.684,68.817,8.246c-1.519,11.162-1.865,11.809-11.592,11.035c-17.581-1.402-35.326-1.953-52.209-8.055
		c-2.229-0.805-4.669-1.086-7.038-1.404c-0.779-0.105-1.644,0.422-2.353,0.627c-2.06,4.02,1.301,4.77,3.41,6.086
		c11.951,7.455,25.498,10.172,39.014,12.879c4.688,0.939,9.471,1.857,14.222,1.924c6.882,0.098,12.206,1.801,14.361,9.125
		c0.473,1.607,1.705,2.994,3.775,6.479c-29.943-6.344-58.103-11.482-83.778-26.289c2.742,8.092,8.311,13.084,14.933,16.779
		c13.791,7.699,29.142,10.689,44.433,13.516c8.164,1.508,16.521,1.998,25.141,2.986c0.685,3.445,1.31,6.604,2.229,11.24
		c-7.717-1.072-14.713-1.646-21.525-3.08c-11.999-2.523-23.856-5.715-35.83-8.371c-12.733-2.82-23.359-9.053-32.07-18.701
		c-1.38-1.529-3.043-2.801-4.544-4.16c-5.453,2.178-3.03,5.295-1.104,7.828c6.996,9.201,15.298,16.951,26.377,20.957
		c18.105,6.545,36.553,11.623,56.039,11.457c5.632-0.049,10.494,0.795,13.739,6.416c1.471,2.549,4.674,4.098,6.511,7.629
		c-5.184-0.398-10.404-0.527-15.544-1.242c-20.189-2.816-40.051-6.805-59.332-13.883c-12.943-4.754-23.012-12.506-31.21-23.213
		c-1.241-1.621-2.593-3.154-3.929-4.77c-4.304,2.357-3.268,4.896-0.765,7.197c7.041,6.479,14.041,13.02,21.354,19.186
		c16.187,13.654,35.884,18.682,56.114,22.256c11.183,1.977,22.376,3.912,34.059,5.951c0.475,3.287,0.932,6.441,1.587,10.982
		c-23.942-0.865-46.234-7.102-68.18-14.67c-22.382-7.717-39.038-23.422-53.736-41.615c-0.612,0.627-1.224,1.254-1.836,1.883
		c8.38,10.316,16.495,20.863,25.221,30.881c7.027,8.068,14.79,15.492,22.227,23.205L456.976,407.859z M363.985,301.715
		c7.943-0.061,13.175-5.339,11.134-11.233c-3.204-9.254-14.402-14.07-23.675-10.456c-4.275,1.667-6.043,4.319-5.629,8.886
		C346.592,297.459,352.622,301.801,363.985,301.715z M350.245,347.012c5.388,2.121,8.688,3.5,12.05,4.713
		c1.684,0.605,3.454,1.115,5.226,1.311c6.095,0.674,12.578-3.133,14.582-8.369c2.019-5.268-0.956-8.637-4.587-11.555
		c-4.53-3.641-10.652-3.381-15.574,1.102C358.065,337.744,354.808,341.959,350.245,347.012z M407.773,314.271
		c5.973-0.004,11.02-4.434,10.817-9.494c-0.169-4.24-5.201-8.179-10.248-8.018c-4.918,0.157-10.301,5.778-10.146,10.596
		C398.347,312.025,401.462,314.275,407.773,314.271z M322.89,290.314c-17.412,2.302-33.847,4.475-50.284,6.649
		c17.711,0.649,35.378,5.398,53.441-0.033C324.986,294.706,323.995,292.624,322.89,290.314z M267.057,347.75
		c-0.489,0.52-0.977,1.037-1.464,1.557c5.892,12.691,12.608,24.805,23.517,34.076c4.004-4.854,4.461-5.232,1.393-8.926
		C282.933,365.352,274.9,356.627,267.057,347.75z M275.936,281.391c1.069-0.296,2.208-0.444,3.197-0.91
		c12.607-5.926,24.4-13.881,39.268-13.798c3.737,0.021,5.72-3.571,4.959-7.233C304.262,259.834,289.845,269.759,275.936,281.391z
		 M293.325,327.57c0.337-0.486,0.675-0.973,1.014-1.459c-1.872-1.176-3.744-2.352-5.616-3.525c0.19-0.314,0.382-0.629,0.573-0.945
		c11.489,0.988,22.979,1.973,34.47,2.959c-17.648-5.389-36.632-2.303-53.668-9.865c0.091-0.643,0.183-1.281,0.274-1.926
		c5.512,0.482,11.024,0.963,16.539,1.441c-4.878-1.746-9.866-2.668-14.886-2.908c-1.656-0.08-3.395,1.598-5.094,2.473
		c1.037,1.592,1.717,4.01,3.171,4.637C277.734,321.74,285.563,324.576,293.325,327.57z M327.542,278.451
		c-9.194-1.932-14.213-0.604-40.267,10.709c12.856-1.951,25.627-4.399,38.357-7.036
		C326.302,281.984,326.642,280.252,327.542,278.451z M279.931,348.621c-0.517,0.627-1.032,1.252-1.547,1.879
		c5.973,6.467,11.802,13.082,18.066,19.254c1.051,1.033,4.004,0.137,6.078,0.133c-0.332-2.086,0.095-5.158-1.122-6.094
		C294.464,358.455,287.131,353.625,279.931,348.621z M271.441,303.653c17.822,4.097,36.066,6.39,54.558,3.489
		c-12.213-1.504-24.482-2.045-36.748-2.609C283.313,304.262,277.377,303.947,271.441,303.653z M262.023,324.615
		c7.77,6.74,15.099,10.545,23.67,12.074C278.047,333.465,274.533,322.664,262.023,324.615z M280.855,387.926
		c-6.783-10.596-12.948-20.223-19.11-29.852C265.445,369.318,268.905,380.715,280.855,387.926z M295.044,341.82
		c6.113,2.775,12.23,5.551,18.344,8.324c0.288-0.658,0.576-1.314,0.863-1.973C309.332,342.627,302.9,340.586,295.044,341.82z"/>
	<path fill-rule="evenodd" clip-rule="evenodd" d="M123.571,216.4c10.802-8.067,20.738-15.589,32.266-20.577
		c1.958-0.846,5.781-0.555,7.106,0.806c13.385,13.734,21.387,30.052,22.327,49.48c0.503,10.382-1.854,20.182-6.113,29.561
		c-1.84,4.055-3.943,7.991-5.925,11.981c-6.165-2.316-8.089-6.542-5.238-11.884c1.121-2.1,2.809-3.896,3.93-5.994
		c9.13-17.048-2.869-38.03-22.081-36.327C135.419,234.726,131.33,224.786,123.571,216.4z"/>
	<path fill-rule="evenodd" clip-rule="evenodd" d="M292.014,30.866c-6.962,6.203-12.94,12.002-19.413,17.186
		c-11.024,8.827-20.235,19.385-28.268,30.759c-15.078,21.349-27.848,44.082-36.087,69.045c-2.617,7.925-4.324,16.151-6.407,24.25
		c-0.371,1.443-0.058,3.441-0.93,4.292c-1.456,1.425-3.614,2.131-5.477,3.141c-0.771-1.67-2.505-3.569-2.169-4.973
		c3.067-12.78,6.092-25.598,9.977-38.141c2.102-6.777,5.735-13.101,8.887-19.525c12.99-26.482,28.623-51.159,50.159-71.632
		c5.405-5.14,11.295-9.796,17.196-14.376C282.833,28.291,286.667,26.525,292.014,30.866z"/>
	<path fill-rule="evenodd" clip-rule="evenodd" d="M457.146,408.066c0.802-3.705,2.786-2.984,5.26-1.586
		c7.823,4.43,15.748,8.68,23.576,13.096c13.001,7.33,27.337,10.445,41.733,13.398c3.202,0.658,6.417,1.268,10.673,2.105
		c-0.842,4.074-1.64,7.928-2.751,13.295c-8.95-2.619-17.015-4.586-24.804-7.338c-18.019-6.363-34.164-15.912-47.938-29.32
		c-1.656-1.611-3.932-2.586-5.92-3.857L457.146,408.066z"/>
	<path fill-rule="evenodd" clip-rule="evenodd" d="M155.092,256.208c-0.12,12.698-6.768,20.771-15.359,20.939
		c-4.524,0.088-8.026-1.549-10.677-5.338c-5.015-7.171-4.767-18.083,0.767-25.138c6.957-8.869,17.082-8.321,22.613,1.514
		C154.132,251.197,154.666,254.863,155.092,256.208z M138.372,271.977c4.11-5.888,4.474-9.676,0.911-11.896
		c-1.153-0.719-4.222-0.208-5.111,0.843C131.518,264.051,133.144,268.127,138.372,271.977z"/>
	<path fill-rule="evenodd" clip-rule="evenodd" d="M471.435,231.629c-3.869,2.242-7.735,4.484-11.603,6.726
		c-3.408,1.551-6.815,3.103-10.222,4.654c-0.387-0.462-0.771-0.924-1.156-1.388c5.58-6.795,12.961-11.742,19.781-17.267
		c2.933-2.374,5.816-4.803,8.723-7.208l-0.213,0.191c3.991-1.947,8.115-3.664,11.951-5.881
		c13.953-8.065,25.255-11.262,37.672-10.181c-1.132,3.714-2.236,7.337-3.439,11.286c-1.305,0.365-2.718,1.142-4.098,1.085
		c-14.335-0.583-26.665,5.893-39.237,11.277C476.487,226.255,474.135,229.347,471.435,231.629z"/>
	<path fill-rule="evenodd" clip-rule="evenodd" d="M160.889,294.921c11.543-0.096,15.44,8.022,19.216,15.004
		c6.271,11.604,0.671,32.18-10.065,39.785c-3.252,2.301-6.924,3.518-10.508,0.658c4.349-9.422,9.471-18.232,12.519-27.711
		C175.577,311.691,166.802,304.055,160.889,294.921z"/>
	<path fill-rule="evenodd" clip-rule="evenodd" d="M468.857,402.158c5.489,1.732,10.891,3.854,16.485,5.127
		c14.495,3.299,29.049,6.346,43.63,9.254c6.646,1.324,7.645,1.891,10.745,10.287c-26.186-1.531-49.649-9.205-71.396-22.543
		C468.498,403.574,468.677,402.867,468.857,402.158z"/>
	<path fill-rule="evenodd" clip-rule="evenodd" d="M476.958,217.147c-1.718,0.418-3.434,0.836-5.179,1.261
		c6.572-15.964,40.016-38.028,56.505-37.313c-1.464,9.458-1.624,9.471-9.378,11.039c-3.468,0.701-7.126,1.531-10.123,3.285
		c-10.005,5.857-19.781,12.109-29.553,18.355c-1.127,0.721-1.672,2.354-2.485,3.563L476.958,217.147z"/>
</g>
</svg>
